<svg xmlns="http://www.w3.org/2000/svg" width="1200" height="630" viewBox="0 0 1200 630" role="img" aria-label="Australian Tax Estimate  work out what you might owe or get back">
  <rect width="1200" height="630" fill="#0d0d0d"/>
  <rect x="80" y="80" width="1040" height="470" rx="24" fill="#ffffff"/>
  <rect x="120" y="120" width="520" height="390" rx="16" fill="#f6f3ee"/>
  <rect x="680" y="150" width="380" height="48" rx="10" fill="#eff6ff"/>
  <rect x="680" y="230" width="300" height="28" rx="8" fill="#e5e7eb"/>
  <rect x="680" y="280" width="340" height="28" rx="8" fill="#e5e7eb"/>
  <rect x="680" y="330" width="260" height="28" rx="8" fill="#e5e7eb"/>
  <rect x="680" y="410" width="180" height="56" rx="12" fill="#1d4ed8"/>
  <rect x="160" y="170" width="440" height="72" rx="12" fill="#ffffff" stroke="#d8d2c8" stroke-width="2"/>
  <text x="160" y="155" font-family="system-ui,sans-serif" font-size="22" font-weight="700" letter-spacing="3" fill="#1d4ed8">AUSTRALIAN TAX ESTIMATE</text>
  <text x="180" y="218" font-family="system-ui,sans-serif" font-size="54" font-weight="700" fill="#0d0d0d">Estimated refund</text>
  <text x="180" y="300" font-family="system-ui,sans-serif" font-size="96" font-weight="700" fill="#047857">$2,480</text>
  <text x="180" y="360" font-family="system-ui,sans-serif" font-size="28" fill="#4a4a4a">Salary · rental · deductions · PAYG</text>
  <rect x="160" y="390" width="120" height="36" rx="8" fill="#1d4ed8"/>
  <rect x="292" y="390" width="120" height="36" rx="8" fill="#dbeafe"/>
  <rect x="424" y="390" width="120" height="36" rx="8" fill="#dbeafe"/>
  <rect x="150" y="455" width="64" height="84" rx="10" fill="#1d4ed8"/>
  <rect x="150" y="475" width="64" height="18" rx="4" fill="#eff6ff"/>
  <text x="182" y="518" text-anchor="middle" font-family="system-ui,sans-serif" font-size="28" font-weight="700" fill="#ffffff">$</text>
  <text x="700" y="442" font-family="system-ui,sans-serif" font-size="24" font-weight="700" fill="#ffffff">Estimate now</text>
  <text x="680" y="500" font-family="system-ui,sans-serif" font-size="22" fill="#4a4a4a">ATO rates · 202223 to 202526</text>
</svg>
